# xmcd
#
# Track frame offsets:
#	150
#	37882
#	85893
#	139268
#	161034
#	203752
#
# Disc length: 3321 seconds
#
# Revision: 1
# Processed by: cddbd v1.5.2PL0 Copyright (c) Steve Scherf et al.
# Submitted via: audiograbber 1.83.01
#
DISCID=490cf706
DTITLE=Grateful Dead - 68-11-22 Veterans Hall, Columbus OH
DYEAR=1900
DGENRE=
TTITLE0=Morning Dew
TTITLE1=Good Morning Little Schoolgirl
TTITLE2=Dark Star
TTITLE3=St Stephen
TTITLE4=The Eleven
TTITLE5=Turn On Your Lovelight
EXTD=
EXTT0=
EXTT1=
EXTT2=
EXTT3=
EXTT4=
EXTT5=
PLAYORDER=
